G04 Layer_Color=65535*
%FSLAX25Y25*%
%MOIN*%
G70*
G01*
G75*
%ADD26C,0.00787*%
%ADD35C,0.00300*%
%ADD36C,0.00394*%
%ADD37R,0.01575X0.01575*%
D26*
X137150Y460409D02*
Y469268D01*
X125339D02*
X137150D01*
X125339Y459425D02*
Y469268D01*
Y459425D02*
X136165D01*
X137150Y460409D01*
X187795Y441732D02*
X188451D01*
Y441076D01*
X187795D01*
Y441732D01*
D35*
X167469Y436616D02*
Y438584D01*
X166386D02*
X167469D01*
X166386Y436616D02*
X167469D01*
X163531D02*
Y438584D01*
Y436616D02*
X164614D01*
X163531Y438584D02*
X164614D01*
X167469Y433016D02*
Y434984D01*
X166386D02*
X167469D01*
X166386Y433016D02*
X167469D01*
X163531D02*
Y434984D01*
Y433016D02*
X164614D01*
X163531Y434984D02*
X164614D01*
X143701Y471850D02*
Y473819D01*
Y471850D02*
X144783D01*
X143701Y473819D02*
X144783D01*
X147638Y471850D02*
Y473819D01*
X146555D02*
X147638D01*
X146555Y471850D02*
X147638D01*
D36*
X179134Y379921D02*
Y377953D01*
X180118D01*
X180446Y378281D01*
Y379593D01*
X180118Y379921D01*
X179134D01*
X181102Y377953D02*
X181758D01*
X181430D01*
Y379921D01*
X181102Y379593D01*
X170603Y438648D02*
X170275Y438976D01*
X169619D01*
X169291Y438648D01*
Y437336D01*
X169619Y437008D01*
X170275D01*
X170603Y437336D01*
X172571Y438976D02*
X171259D01*
Y437992D01*
X171915Y438320D01*
X172243D01*
X172571Y437992D01*
Y437336D01*
X172243Y437008D01*
X171587D01*
X171259Y437336D01*
X162729Y430774D02*
X162401Y431102D01*
X161745D01*
X161417Y430774D01*
Y429462D01*
X161745Y429134D01*
X162401D01*
X162729Y429462D01*
X163385Y430774D02*
X163713Y431102D01*
X164369D01*
X164697Y430774D01*
Y430446D01*
X164369Y430118D01*
X164041D01*
X164369D01*
X164697Y429790D01*
Y429462D01*
X164369Y429134D01*
X163713D01*
X163385Y429462D01*
X161417Y466535D02*
Y464895D01*
X161745Y464567D01*
X162401D01*
X162729Y464895D01*
Y466535D01*
X164697Y464567D02*
X163385D01*
X164697Y465879D01*
Y466207D01*
X164369Y466535D01*
X163713D01*
X163385Y466207D01*
X145013Y470144D02*
X144685Y470472D01*
X144029D01*
X143701Y470144D01*
Y468832D01*
X144029Y468504D01*
X144685D01*
X145013Y468832D01*
X145669Y468504D02*
X146325D01*
X145997D01*
Y470472D01*
X145669Y470144D01*
X120079Y468503D02*
Y466863D01*
X120407Y466535D01*
X121063D01*
X121391Y466863D01*
Y468503D01*
X122047Y466535D02*
X122703D01*
X122375D01*
Y468503D01*
X122047Y468175D01*
D37*
X127307Y465331D02*
D03*
M02*
