G04 Layer_Color=16711935*
%FSLAX25Y25*%
%MOIN*%
G70*
G01*
G75*
%ADD56C,0.00039*%
D56*
X104331Y373302D02*
G03*
X106498Y375468I0J2167D01*
G01*
X108268Y445471D02*
G03*
X106498Y443701I0J-1770D01*
G01*
X160432D02*
G03*
X158661Y445471I-1770J0D01*
G01*
X160432Y375468D02*
G03*
X162598Y373302I2167J0D01*
G01*
X193020D02*
G03*
X195186Y375468I0J2167D01*
G01*
Y442398D02*
G03*
X194988Y442596I-198J0D01*
G01*
X189281Y444366D02*
G03*
X191051Y442596I1770J0D01*
G01*
Y455585D02*
G03*
X189281Y453815I0J-1770D01*
G01*
X194988Y455585D02*
G03*
X195186Y455784I0J198D01*
G01*
Y497516D02*
G03*
X193020Y499683I-2167J0D01*
G01*
X116248D02*
G03*
X116107Y499623I0J-198D01*
G01*
X100361Y483878D02*
G03*
X100302Y483736I139J-141D01*
G01*
Y460114D02*
G03*
X100500Y459916I198J0D01*
G01*
X106207Y458152D02*
G03*
X104437Y459916I-1770J-6D01*
G01*
X104437Y454407D02*
G03*
X106207Y456177I0J1770D01*
G01*
X100500Y454407D02*
G03*
X100302Y454209I0J-198D01*
G01*
Y375468D02*
G03*
X102469Y373302I2167J0D01*
G01*
X104331D01*
X106498Y375468D02*
Y443701D01*
X108268Y445471D02*
X158661D01*
X160432Y375468D02*
Y443701D01*
X162598Y373302D02*
X193020D01*
X195186Y375468D02*
Y442398D01*
X191051Y442596D02*
X194988D01*
X189281Y444366D02*
Y453815D01*
X191051Y455585D02*
X194988D01*
X195186Y455784D02*
Y497516D01*
X116248Y499683D02*
X193020D01*
X116107Y499623D02*
X116108Y499624D01*
X100360Y483877D02*
X116108Y499624D01*
X100360Y483877D02*
X100361Y483878D01*
X100302Y460114D02*
Y483736D01*
X100500Y459916D02*
X104437D01*
X106207Y456177D02*
Y458152D01*
X100500Y454407D02*
X104437D01*
X100302Y375468D02*
Y454209D01*
M02*
