G04 Layer_Physical_Order=1*
G04 Layer_Color=255*
%FSLAX25Y25*%
%MOIN*%
G70*
G01*
G75*
%ADD10R,0.07874X0.17716*%
%ADD11R,0.03937X0.23622*%
%ADD12R,0.05906X0.23622*%
%ADD13R,0.07874X0.23622*%
%ADD14R,0.02362X0.03150*%
%ADD15R,0.01772X0.02165*%
%ADD16O,0.03150X0.00984*%
%ADD17R,0.03150X0.00984*%
%ADD18R,0.00984X0.03150*%
%ADD19R,0.18110X0.18110*%
%ADD20O,0.00945X0.00906*%
%ADD21C,0.00945*%
%ADD22R,0.01575X0.03937*%
%ADD23R,0.01969X0.05118*%
%ADD24C,0.01969*%
%ADD25C,0.00600*%
%ADD26C,0.00787*%
%ADD27C,0.01181*%
%ADD28C,0.00598*%
%ADD29R,0.04459X0.08366*%
%ADD30R,0.06791X0.09646*%
%ADD31R,0.03142X0.05118*%
%ADD32R,0.04339X0.04724*%
%ADD33C,0.02756*%
%ADD34C,0.02756*%
G36*
X106685Y467512D02*
X110498D01*
X112919Y465091D01*
X113312Y464828D01*
X113776Y464736D01*
X121842D01*
X122034Y464274D01*
X120612Y462852D01*
X120413Y462555D01*
X120344Y462205D01*
Y451795D01*
X120185Y451559D01*
X120137Y451313D01*
X119627D01*
X119578Y451559D01*
X119141Y452212D01*
X118488Y452649D01*
X117717Y452803D01*
X116945Y452649D01*
X116292Y452212D01*
X115855Y451559D01*
X115701Y450787D01*
X115855Y450016D01*
X116292Y449363D01*
X116339Y449331D01*
Y446101D01*
X114386D01*
Y449342D01*
X114417Y449363D01*
X114854Y450016D01*
X115007Y450787D01*
X114854Y451559D01*
X114417Y452212D01*
X113763Y452649D01*
X112992Y452803D01*
X112221Y452649D01*
X111567Y452212D01*
X111130Y451559D01*
X110977Y450787D01*
X111130Y450016D01*
X111567Y449363D01*
X111614Y449331D01*
Y446101D01*
X108268D01*
Y446136D01*
X107336Y445951D01*
X106546Y445423D01*
X106018Y444633D01*
X105833Y443701D01*
X105867D01*
Y375468D01*
X105859D01*
X105743Y374884D01*
X105411Y374388D01*
X104915Y374057D01*
X104331Y373940D01*
Y373932D01*
X102469D01*
Y373940D01*
X101884Y374057D01*
X101388Y374388D01*
X101057Y374884D01*
X100940Y375468D01*
X100932D01*
Y453777D01*
X104437D01*
Y453742D01*
X105369Y453928D01*
X106159Y454455D01*
X106687Y455245D01*
X106872Y456177D01*
X106837D01*
Y458152D01*
X106839Y458154D01*
X106870Y458154D01*
X106687Y459078D01*
X106159Y459867D01*
X105369Y460395D01*
X104437Y460581D01*
Y460546D01*
X100932D01*
Y467520D01*
X106685D01*
Y467512D01*
D02*
G37*
G36*
X134610Y458799D02*
X134961Y458730D01*
X140369D01*
X141958Y457140D01*
X142255Y456942D01*
X142605Y456872D01*
X147344D01*
X147711Y456506D01*
X147591Y455905D01*
X147745Y455134D01*
X147903Y454897D01*
Y453923D01*
X147392Y453411D01*
X147193Y453114D01*
X147123Y452764D01*
Y450067D01*
X146653D01*
Y446101D01*
X140764D01*
Y450067D01*
X140286D01*
Y452172D01*
X140795Y452512D01*
X141232Y453166D01*
X141385Y453937D01*
X141232Y454708D01*
X140795Y455362D01*
X140141Y455799D01*
X139370Y455952D01*
X138599Y455799D01*
X137945Y455362D01*
X137894Y455286D01*
X137397Y455237D01*
X134086Y458548D01*
X134404Y458937D01*
X134610Y458799D01*
D02*
G37*
G36*
X145858Y474516D02*
Y471283D01*
X134358D01*
X133894Y471191D01*
X133501Y470928D01*
X133261Y470688D01*
X132998Y470295D01*
X132956Y470284D01*
X132456Y470677D01*
Y472693D01*
X132364Y473157D01*
X132224Y473366D01*
Y474902D01*
X145583D01*
X145858Y474516D01*
D02*
G37*
G36*
X194556Y456215D02*
X191051D01*
Y456250D01*
X190119Y456065D01*
X189329Y455537D01*
X188802Y454747D01*
X188616Y453815D01*
X188651D01*
Y444366D01*
X188616D01*
X188802Y443434D01*
X189329Y442644D01*
X190119Y442116D01*
X191051Y441931D01*
Y441966D01*
X194556D01*
Y375468D01*
X194548D01*
X194431Y374884D01*
X194100Y374388D01*
X193605Y374057D01*
X193020Y373940D01*
Y373932D01*
X179724D01*
Y378173D01*
X178859D01*
Y379865D01*
X185490Y386495D01*
X185490Y386495D01*
X185688Y386792D01*
X185758Y387142D01*
Y435466D01*
X185994Y435702D01*
X185994Y435702D01*
X186192Y435998D01*
X186262Y436349D01*
X186262Y436349D01*
Y439653D01*
X186262Y439653D01*
X186192Y440004D01*
X185994Y440301D01*
X185994Y440301D01*
X185933Y440361D01*
Y444102D01*
X181783D01*
Y439756D01*
X181783Y439756D01*
X181783D01*
X181715Y439266D01*
X181646Y439220D01*
X181209Y438566D01*
X181160Y438321D01*
X180651D01*
X180602Y438566D01*
X180165Y439220D01*
X180079Y439277D01*
X180028Y439756D01*
X180028Y439756D01*
X180028Y439756D01*
Y444102D01*
X177847D01*
Y439756D01*
X177552Y439378D01*
X177315Y439220D01*
X177236Y439102D01*
X176635D01*
X176425Y439417D01*
X176419Y439421D01*
X176091Y439756D01*
X176091D01*
X176091Y439756D01*
Y444102D01*
X173909D01*
Y439756D01*
X173909Y439756D01*
X173909D01*
X173577Y439418D01*
X173575Y439417D01*
X173138Y438763D01*
X172985Y437992D01*
X173138Y437221D01*
X173575Y436567D01*
X174229Y436130D01*
X175000Y435977D01*
X175771Y436130D01*
X176425Y436567D01*
X176504Y436685D01*
X177105D01*
X177315Y436370D01*
X177969Y435934D01*
X178740Y435780D01*
X179511Y435934D01*
X180165Y436370D01*
X180602Y437024D01*
X180651Y437269D01*
X181160D01*
X181209Y437024D01*
X181646Y436370D01*
X182300Y435934D01*
X183071Y435780D01*
X183430Y435852D01*
X183927Y435441D01*
Y387522D01*
X178094Y381688D01*
X177632Y381880D01*
Y431685D01*
X170662D01*
Y413318D01*
X164757D01*
Y378535D01*
X170662D01*
Y378535D01*
X175832D01*
X176165Y378173D01*
Y373932D01*
X162598D01*
Y373940D01*
X162014Y374057D01*
X161518Y374388D01*
X161187Y374884D01*
X161070Y375468D01*
X161062D01*
Y443701D01*
X161097D01*
X160911Y444633D01*
X160383Y445423D01*
X160366Y445434D01*
X160517Y445934D01*
X162000D01*
Y443791D01*
X165975Y443791D01*
X166035Y443791D01*
X166035Y443731D01*
X166035Y439756D01*
X166035Y439756D01*
X166035D01*
X165975Y439281D01*
X165689D01*
Y435919D01*
X165689Y435919D01*
Y435681D01*
X165689D01*
X165689Y435419D01*
Y434664D01*
X165609Y434544D01*
X165486Y433927D01*
Y432542D01*
X165238Y432171D01*
X165085Y431400D01*
X165238Y430629D01*
X165675Y429975D01*
X166329Y429538D01*
X167100Y429385D01*
X167871Y429538D01*
X168525Y429975D01*
X168962Y430629D01*
X169115Y431400D01*
X168962Y432171D01*
X168714Y432542D01*
Y433632D01*
X168787Y434000D01*
X168756Y434153D01*
X171778Y437175D01*
X171998Y437503D01*
X172075Y437890D01*
Y439756D01*
X172154D01*
Y444102D01*
X166407Y444102D01*
X166347Y444102D01*
X166347Y444163D01*
X166347Y447728D01*
Y451665D01*
Y455602D01*
Y459539D01*
Y463689D01*
X162000D01*
Y463514D01*
X151581D01*
X150423Y464672D01*
X150615Y465134D01*
X155347D01*
X155810Y465227D01*
X156204Y465489D01*
X161943Y471229D01*
X164776D01*
X165043Y470729D01*
X164938Y470571D01*
X164785Y469800D01*
X164938Y469029D01*
X165375Y468375D01*
X166029Y467938D01*
X166800Y467785D01*
X167288Y467882D01*
X168004Y467165D01*
Y463378D01*
X174122D01*
Y465043D01*
X174152Y465087D01*
X174244Y465551D01*
Y467534D01*
X174409Y467670D01*
X175181Y467823D01*
X175834Y468260D01*
X176077Y468624D01*
X176679D01*
X176922Y468260D01*
X177428Y467922D01*
X177575Y467823D01*
X177575Y467823D01*
X177847Y467724D01*
Y463378D01*
X183965D01*
Y467724D01*
X184170Y468139D01*
X184619Y468588D01*
X186999D01*
X187275Y468175D01*
X187929Y467738D01*
X188700Y467585D01*
X189471Y467738D01*
X190125Y468175D01*
X190562Y468829D01*
X190715Y469600D01*
X190562Y470371D01*
X190125Y471025D01*
X189695Y471312D01*
Y471888D01*
X190125Y472175D01*
X190562Y472829D01*
X190715Y473600D01*
X190562Y474371D01*
X190502Y474461D01*
X190738Y474902D01*
X194556D01*
Y456215D01*
D02*
G37*
D10*
X111221Y476968D02*
D03*
D11*
X186024Y487795D02*
D03*
D12*
X179134D02*
D03*
D13*
X170276D02*
D03*
X160433D02*
D03*
X150591D02*
D03*
X140748D02*
D03*
X130905D02*
D03*
X121063D02*
D03*
D14*
X177944Y376000D02*
D03*
X183456D02*
D03*
D15*
X167173Y437600D02*
D03*
X163827D02*
D03*
X167173Y434000D02*
D03*
X163827D02*
D03*
X143996Y472835D02*
D03*
X147343D02*
D03*
D16*
X187795Y444882D02*
D03*
D17*
Y446850D02*
D03*
Y448819D02*
D03*
Y450787D02*
D03*
Y452756D02*
D03*
Y454724D02*
D03*
Y456693D02*
D03*
Y458661D02*
D03*
Y460630D02*
D03*
Y462598D02*
D03*
X164173D02*
D03*
Y460630D02*
D03*
Y458661D02*
D03*
Y456693D02*
D03*
Y454724D02*
D03*
Y452756D02*
D03*
Y450787D02*
D03*
Y448819D02*
D03*
Y446850D02*
D03*
Y444882D02*
D03*
D18*
X184843Y465551D02*
D03*
X182874D02*
D03*
X180905D02*
D03*
X178937D02*
D03*
X176969D02*
D03*
X175000D02*
D03*
X173031D02*
D03*
X171063D02*
D03*
X169095D02*
D03*
X167126D02*
D03*
Y441929D02*
D03*
X169095D02*
D03*
X171063D02*
D03*
X173031D02*
D03*
X175000D02*
D03*
X176969D02*
D03*
X178937D02*
D03*
X180905D02*
D03*
X182874D02*
D03*
X184843D02*
D03*
D19*
X175984Y453740D02*
D03*
D20*
X127307Y467299D02*
D03*
Y463362D02*
D03*
D21*
Y461394D02*
D03*
X129276Y467299D02*
D03*
Y465331D02*
D03*
Y463362D02*
D03*
Y461394D02*
D03*
X131244Y467299D02*
D03*
Y465331D02*
D03*
Y463362D02*
D03*
Y461394D02*
D03*
X133213Y467299D02*
D03*
Y465331D02*
D03*
Y463362D02*
D03*
Y461394D02*
D03*
X135181Y467299D02*
D03*
Y465331D02*
D03*
Y463362D02*
D03*
Y461394D02*
D03*
D22*
X148039Y447500D02*
D03*
X143709D02*
D03*
X139378D02*
D03*
X135047D02*
D03*
X130717D02*
D03*
X126386D02*
D03*
X117724D02*
D03*
X152370D02*
D03*
X122055D02*
D03*
X113000D02*
D03*
D23*
X161425Y416791D02*
D03*
X105520D02*
D03*
D24*
X167100Y433927D02*
X167173Y434000D01*
X167100Y431400D02*
Y433927D01*
X150591Y475000D02*
Y487795D01*
X148425Y472835D02*
X150591Y475000D01*
D25*
X163827Y437600D02*
Y439273D01*
Y434000D02*
Y437600D01*
X162800Y440300D02*
X163827Y439273D01*
X170866Y433071D02*
Y434066D01*
X172724Y439370D02*
X173031Y439678D01*
X172724Y439370D02*
Y441621D01*
Y435924D02*
Y439370D01*
X170866Y434066D02*
X172724Y435924D01*
Y441621D02*
X173031Y441929D01*
X167126Y437647D02*
X167173Y437600D01*
X167126Y437647D02*
Y441929D01*
X144644Y457788D02*
X147724D01*
X142758D02*
X144644D01*
X142605D02*
X142758D01*
X148819Y453543D02*
Y455905D01*
X133213Y461394D02*
X134961Y459646D01*
X140748D01*
X142605Y457788D01*
X147724D02*
X149606Y455905D01*
X136173Y468291D02*
X138976D01*
X135181Y467299D02*
X136173Y468291D01*
X149300Y464500D02*
X151202Y462598D01*
X145206Y464500D02*
X149300D01*
X142100Y461394D02*
X145206Y464500D01*
X183456Y376000D02*
X192200D01*
X125263Y467437D02*
X127307D01*
X124200Y468500D02*
X125263Y467437D01*
X127307Y467299D02*
Y467437D01*
X124681Y465948D02*
X128658D01*
X127888Y464750D02*
X129276Y463362D01*
X125588Y464750D02*
X127888D01*
X151202Y462598D02*
X164173D01*
X152370Y447500D02*
Y456361D01*
X142100Y461394D02*
X144394Y459100D01*
X149631D01*
X152370Y456361D01*
X135181Y461394D02*
X142100D01*
X161039Y458661D02*
X164173D01*
X160645Y459055D02*
X161039Y458661D01*
X154724Y459055D02*
X160645D01*
X158661Y456693D02*
X158661Y456693D01*
X164173D01*
X140748Y475000D02*
Y487795D01*
Y475000D02*
X142913Y472835D01*
X129276Y452220D02*
Y461394D01*
X129528Y452472D02*
X130717Y451283D01*
Y447500D02*
Y451283D01*
X175984Y453740D02*
X182874Y460630D01*
X187795D01*
X173031Y450787D02*
X175984Y453740D01*
X173031Y441929D02*
Y450787D01*
Y439678D02*
Y441929D01*
X182874Y437992D02*
Y441929D01*
X178740Y437795D02*
X178937Y437992D01*
Y441929D01*
X175000Y437992D02*
Y441929D01*
X148039Y452764D02*
X148819Y453543D01*
X154724Y454794D02*
Y459055D01*
X139370Y447508D02*
Y453937D01*
X132014Y459324D02*
X137402Y453937D01*
X139370D01*
X132014Y459324D02*
Y460624D01*
X131244Y461394D02*
X132014Y460624D01*
X134535Y447500D02*
Y453261D01*
X124016Y459842D02*
Y460071D01*
X140134Y463362D02*
X140551Y463779D01*
X135181Y463362D02*
X140134D01*
X143701Y447508D02*
X143709Y447500D01*
X143701Y447508D02*
Y455512D01*
X124016Y460071D02*
X127307Y463362D01*
X121260Y462205D02*
X123514Y464459D01*
X121260Y451575D02*
Y462205D01*
Y451575D02*
X122047Y450787D01*
X125298Y464459D02*
X125588Y464750D01*
X123514Y464459D02*
X125298D01*
X133858Y453937D02*
X134535Y453261D01*
X148039Y447500D02*
Y452764D01*
X126386Y447500D02*
Y460472D01*
X129276Y452220D02*
X129528Y452472D01*
X155512Y451575D02*
X160236Y446850D01*
X154724Y451575D02*
X155512D01*
X158661Y452756D02*
X160630Y450787D01*
X158661Y452756D02*
Y456693D01*
X160630Y450787D02*
X164173D01*
X134535Y447500D02*
X135047D01*
X139370Y447508D02*
X139378Y447500D01*
X161024Y453937D02*
X162205Y452756D01*
X164173D01*
X161811Y454724D02*
X164173D01*
X161024Y453937D02*
X161811Y454724D01*
X160236Y446850D02*
X164173D01*
X131244Y467299D02*
Y469291D01*
X126386Y460472D02*
X127307Y461394D01*
X128658Y465948D02*
X129276Y465331D01*
Y461394D02*
X131244Y463362D01*
Y461394D02*
X133213Y463362D01*
Y465331D02*
Y467299D01*
X131244Y465331D02*
Y467299D01*
X133213D02*
Y468925D01*
X134118Y469831D01*
X135181Y465331D02*
X137744D01*
X154724Y454794D02*
X160700Y448819D01*
X164173D01*
D26*
X169095Y435921D02*
X171063Y437890D01*
X167173Y434000D02*
X169095Y435921D01*
Y441929D01*
X166800Y469800D02*
X169095Y467506D01*
Y465551D02*
Y467506D01*
X170800Y469800D02*
X171063Y469537D01*
Y465551D02*
Y469537D01*
X184200Y469600D02*
X188700D01*
X182874Y468274D02*
X184200Y469600D01*
X182874Y465551D02*
Y468274D01*
X185600Y473600D02*
X188700D01*
X180905Y468905D02*
X185600Y473600D01*
X180905Y465551D02*
Y468905D01*
X171063Y437890D02*
Y441929D01*
X178347Y469685D02*
X178937Y469095D01*
Y465551D02*
Y469095D01*
X175197Y379921D02*
Y381496D01*
X174672Y382020D01*
X174147Y381496D01*
Y380446D01*
X173623Y379921D01*
X173098Y380446D01*
Y382020D01*
X176246Y383070D02*
X173098D01*
Y384644D01*
X173623Y385169D01*
X174672D01*
X175197Y384644D01*
Y383070D01*
Y386743D02*
Y387793D01*
X174672Y388317D01*
X173623D01*
X173098Y387793D01*
Y386743D01*
X173623Y386218D01*
X174672D01*
X175197Y386743D01*
Y389892D02*
Y390941D01*
X174672Y391466D01*
X173623D01*
X173098Y390941D01*
Y389892D01*
X173623Y389367D01*
X174672D01*
X175197Y389892D01*
Y393040D02*
X172573D01*
X173623D01*
Y392516D01*
Y393565D01*
Y393040D01*
X172573D01*
X172048Y393565D01*
X173098Y397238D02*
Y395664D01*
X173623Y395139D01*
X174672D01*
X175197Y395664D01*
Y397238D01*
Y398288D02*
Y399338D01*
Y398813D01*
X173098D01*
Y398288D01*
X172048Y403011D02*
X175197D01*
Y401437D01*
X174672Y400912D01*
X173623D01*
X173098Y401437D01*
Y403011D01*
X175197Y404061D02*
X173098Y406159D01*
X175197Y407209D02*
Y408783D01*
X174672Y409308D01*
X174147Y408783D01*
Y407734D01*
X173623Y407209D01*
X173098Y407734D01*
Y409308D01*
X176246Y410358D02*
X173098D01*
Y411932D01*
X173623Y412457D01*
X174672D01*
X175197Y411932D01*
Y410358D01*
Y414031D02*
Y415080D01*
X174672Y415605D01*
X173623D01*
X173098Y415080D01*
Y414031D01*
X173623Y413506D01*
X174672D01*
X175197Y414031D01*
Y417180D02*
Y418229D01*
X174672Y418754D01*
X173623D01*
X173098Y418229D01*
Y417180D01*
X173623Y416655D01*
X174672D01*
X175197Y417180D01*
Y420328D02*
X172573D01*
X173623D01*
Y419803D01*
Y420853D01*
Y420328D01*
X172573D01*
X172048Y420853D01*
X173098Y424526D02*
Y422952D01*
X173623Y422427D01*
X174672D01*
X175197Y422952D01*
Y424526D01*
Y425576D02*
Y426625D01*
Y426101D01*
X173098D01*
Y425576D01*
X172048Y430299D02*
X175197D01*
Y428724D01*
X174672Y428200D01*
X173623D01*
X173098Y428724D01*
Y430299D01*
X170341Y380971D02*
Y381496D01*
X169816Y382020D01*
X167192D01*
Y380446D01*
X167717Y379921D01*
X168767D01*
X169291Y380446D01*
Y382020D01*
Y383070D02*
Y384119D01*
Y383595D01*
X167192D01*
Y383070D01*
X166667Y386218D02*
X167192D01*
Y385694D01*
Y386743D01*
Y386218D01*
X168767D01*
X169291Y386743D01*
X166143Y388317D02*
X169291D01*
X167717D01*
X167192Y388842D01*
Y389892D01*
X167717Y390417D01*
X169291D01*
X167192Y391466D02*
X168767D01*
X169291Y391991D01*
Y393565D01*
X167192D01*
X166143Y394615D02*
X169291D01*
Y396189D01*
X168767Y396714D01*
X168242D01*
X167717D01*
X167192Y396189D01*
Y394615D01*
X169291Y397763D02*
X168767D01*
Y398288D01*
X169291D01*
Y397763D01*
X167192Y402486D02*
Y400912D01*
X167717Y400387D01*
X168767D01*
X169291Y400912D01*
Y402486D01*
Y404061D02*
Y405110D01*
X168767Y405635D01*
X167717D01*
X167192Y405110D01*
Y404061D01*
X167717Y403536D01*
X168767D01*
X169291Y404061D01*
Y406684D02*
X167192D01*
Y407209D01*
X167717Y407734D01*
X169291D01*
X167717D01*
X167192Y408259D01*
X167717Y408783D01*
X169291D01*
Y409833D02*
X167192Y411932D01*
D27*
X134358Y470071D02*
X152471D01*
X134118Y469831D02*
X134358Y470071D01*
X152471D02*
X157100Y474700D01*
X138976Y468291D02*
X154322D01*
X139488Y466347D02*
X155347D01*
X138472Y465331D02*
X139488Y466347D01*
X121169Y471531D02*
X124200Y468500D01*
X121169Y471531D02*
Y487673D01*
X161441Y472441D02*
X180413D01*
X155347Y466347D02*
X161441Y472441D01*
X158700Y472600D02*
X160320Y474221D01*
X154322Y468291D02*
X158630Y472600D01*
X158700D01*
X157100Y474700D02*
X160433Y478033D01*
Y487795D01*
X157100Y484462D02*
X160433Y487795D01*
X157100Y474700D02*
Y484462D01*
X160320Y474221D02*
X177764D01*
X186130Y478158D02*
Y487673D01*
X180413Y472441D02*
X186130Y478158D01*
X173031Y468307D02*
X174409Y469685D01*
X173031Y465551D02*
Y468307D01*
X177764Y474221D02*
X179240Y475697D01*
X131012Y477953D02*
Y487673D01*
Y472925D02*
Y477953D01*
X137744Y465331D02*
X138472D01*
X179240Y475697D02*
Y487673D01*
X131244Y469291D02*
Y472693D01*
X131012Y472925D02*
X131244Y472693D01*
X111327Y468398D02*
Y476847D01*
Y468398D02*
X113776Y465948D01*
X124681D01*
D28*
X177944Y376000D02*
Y380244D01*
X184843Y387142D01*
Y435845D01*
X185346Y436349D01*
X146199Y461401D02*
X155900D01*
X156671Y460630D02*
X164173D01*
X155900Y461401D02*
X156671Y460630D01*
X129276Y467299D02*
Y469624D01*
X127800Y471100D02*
X129276Y469624D01*
X145800Y461800D02*
X146199Y461401D01*
X184843Y440158D02*
Y441929D01*
Y440158D02*
X185346Y439653D01*
Y436349D02*
Y439653D01*
D29*
X149671Y475541D02*
D03*
D30*
X140994Y476083D02*
D03*
D31*
X162996Y416732D02*
D03*
D32*
X103350Y416929D02*
D03*
D33*
X162800Y440300D02*
D03*
X167100Y431400D02*
D03*
X170866Y433071D02*
D03*
X192600Y376300D02*
D03*
X184900Y381500D02*
D03*
X179200Y387100D02*
D03*
X188100Y408500D02*
D03*
X188200Y391800D02*
D03*
X182000Y398200D02*
D03*
Y414300D02*
D03*
Y424300D02*
D03*
X127800Y471100D02*
D03*
X145800Y461800D02*
D03*
X111221Y463583D02*
D03*
X170100Y495400D02*
D03*
X162992Y397638D02*
D03*
X163500Y375900D02*
D03*
X192100Y404300D02*
D03*
X187600Y426500D02*
D03*
X163386Y425197D02*
D03*
X191400Y437600D02*
D03*
X102500Y463800D02*
D03*
X112500Y461300D02*
D03*
X108900Y453600D02*
D03*
X188700Y465600D02*
D03*
X157100Y474700D02*
D03*
X162800Y469800D02*
D03*
X170800D02*
D03*
X188700Y469600D02*
D03*
Y473600D02*
D03*
X140059Y473721D02*
D03*
X103543Y376575D02*
D03*
X102756Y416929D02*
D03*
X162992Y416535D02*
D03*
X175984Y453740D02*
D03*
X170472Y447638D02*
D03*
X182283D02*
D03*
X181496Y459842D02*
D03*
X169685Y460236D02*
D03*
X183071Y437795D02*
D03*
X178740D02*
D03*
X175000Y437992D02*
D03*
X149606Y455905D02*
D03*
X154724Y459055D02*
D03*
X170472Y477165D02*
D03*
X178347Y469685D02*
D03*
X174409D02*
D03*
X131012Y477953D02*
D03*
X124016Y459842D02*
D03*
X150787Y475591D02*
D03*
X140551Y463779D02*
D03*
X116535Y457480D02*
D03*
X133858Y453937D02*
D03*
X139370D02*
D03*
X125984Y451575D02*
D03*
X129528Y452756D02*
D03*
X154724Y451575D02*
D03*
X158661Y456693D02*
D03*
X161024Y453937D02*
D03*
X143701Y455512D02*
D03*
X117717Y450787D02*
D03*
X112992D02*
D03*
X122047D02*
D03*
D34*
X166800Y469800D02*
D03*
M02*
