M48
;Layer_Color=9474304
;FILE_FORMAT=2:5
INCH,LZ
;TYPE=PLATED
T1F00S00C0.01181
%
T01
X0103543Y0376575
X0102756Y0416929
X01089Y04536
X0112992Y0450787
X0117717
X0122047
X0125984Y0451575
X0129528Y0452756
X0133858Y0453937
X013937
X0143701Y0455512
X0149606Y0455905
X0154724Y0459055
Y0451575
X01458Y04618
X0140551Y0463779
X0124016Y0459842
X0116535Y045748
X01125Y04613
X0111221Y0463583
X01025Y04638
X0158661Y0456693
X0161024Y0453937
X0169685Y0460236
X0181496Y0459842
X0175984Y045374
X0170472Y0447638
X0182283
X0183071Y0437795
X017874
X0175Y0437992
X0170866Y0433071
X01671Y04314
X0163386Y0425197
X0162992Y0416535
Y0397638
X0182Y03982
X01882Y03918
X01849Y03815
X01792Y03871
X01926Y03763
X01921Y04043
X01881Y04085
X0182Y04143
Y04243
X01876Y04265
X01914Y04376
X01887Y04656
X01628Y04403
X01635Y03759
X01628Y04698
X01668
X01708
X0174409Y0469685
X0178347
X01887Y04696
Y04736
X0170472Y0477165
X01571Y04747
X01701Y04954
X0150787Y0475591
X0140059Y0473721
X0131012Y0477953
X01278Y04711
M30
