G04 Layer_Color=32896*
%FSLAX25Y25*%
%MOIN*%
G70*
G01*
G75*
%ADD36C,0.00394*%
G36*
X195186Y497400D02*
Y456500D01*
Y455972D01*
X194800Y455585D01*
X194685Y455700D01*
X189800D01*
X188800Y454700D01*
Y443700D01*
X190500Y442000D01*
X195000D01*
Y375400D01*
X193000Y373400D01*
X162800D01*
X160200Y376000D01*
Y444800D01*
X159100Y445900D01*
X159000Y445800D01*
X107300D01*
X106400Y444900D01*
Y375400D01*
X104500Y373500D01*
X102000D01*
X100300Y375200D01*
Y453100D01*
X101200Y454000D01*
X105400D01*
X106700Y455300D01*
Y459100D01*
X105400Y460400D01*
X101302D01*
X100302Y461400D01*
Y483684D01*
X116300Y499683D01*
X116300D01*
X116300Y499683D01*
X116300Y499683D01*
X192904D01*
X195186Y497400D01*
D02*
G37*
D36*
X161088Y453940D02*
X161416Y454268D01*
X162072D01*
X162400Y453940D01*
Y453612D01*
X162072Y453284D01*
X161416D01*
X161088Y452956D01*
Y452628D01*
X161416Y452300D01*
X162072D01*
X162400Y452628D01*
X160432Y454268D02*
Y452300D01*
X159448D01*
X159120Y452628D01*
Y453940D01*
X159448Y454268D01*
X160432D01*
X158464Y452300D02*
X157808D01*
X158136D01*
Y454268D01*
X158464Y453940D01*
M02*
